<svg width="40" height="20" viewBox="0 0 40 20" fill="none" xmlns="http://www.w3.org/2000/svg">
<g clip-path="url(#clip0_79_624)">
<path d="M39.9979 0.0924784C39.7779 0.538682 39.6243 1.01154 39.4456 1.4743C38.6284 3.59265 37.8172 5.71302 37.0041 7.83299C36.7201 8.57317 36.4309 9.31091 36.1585 10.0555C36.0865 10.2518 35.9881 10.318 35.7801 10.3168C34.2606 10.3075 32.7415 10.3119 31.222 10.3115C30.956 10.3115 30.9484 10.299 31.0424 10.0567C31.4931 8.89136 31.9411 7.72518 32.3963 6.56142C32.4587 6.40191 32.4391 6.34659 32.2591 6.3474C31.2128 6.35224 30.1668 6.35548 29.1205 6.34498C28.8977 6.34255 28.8625 6.48913 28.8057 6.63895C28.3761 7.76919 27.9473 8.89984 27.5165 10.0297C27.4222 10.2772 27.4122 10.2772 27.2322 10.0765C26.741 9.52816 26.253 8.97697 25.7562 8.43385C25.6426 8.30989 25.6502 8.25335 25.7934 8.16411C26.8534 7.5047 27.8181 6.72496 28.6725 5.80832C28.7089 5.76915 28.7473 5.73079 28.7769 5.68678C28.8121 5.63388 28.7917 5.59592 28.7297 5.58865C28.6837 5.583 28.6365 5.58461 28.5901 5.58461C27.5305 5.58461 26.471 5.58744 25.4115 5.58138C25.2443 5.58058 25.1215 5.62903 25.0095 5.75421C24.7723 6.01911 24.5079 6.25452 24.2231 6.46773C24.1147 6.5489 24.0475 6.53719 23.9563 6.43381C23.4771 5.89272 22.99 5.35848 22.5056 4.82223C22.4696 4.78266 22.4336 4.74268 22.3968 4.70392C22.2928 4.59529 22.2908 4.52544 22.4496 4.46002C22.888 4.27952 23.31 4.06308 23.7107 3.80788C24.2875 3.44042 24.8107 3.01481 25.0847 2.35943C25.4151 1.56919 25.2935 0.785809 24.4415 0.385236C24.1987 0.27096 23.9471 0.184949 23.6847 0.131244C23.4832 0.0900555 23.2812 0.0512904 23.0792 0.0113138C25.839 0.0113138 28.5989 0.0113138 31.3588 0.0113138C30.8904 1.22717 30.4228 2.44342 29.954 3.65928C29.8743 3.86603 29.9406 3.9694 30.1528 3.9694C31.1456 3.9694 32.1383 3.96496 33.1311 3.97384C33.3147 3.97546 33.4051 3.91408 33.4691 3.74165C33.7482 2.9926 34.0442 2.25 34.325 1.50175C34.511 1.00548 34.731 0.522126 34.8786 0.0113138C36.5385 0.0113138 38.1984 0.01091 39.8583 0.0141404C39.9071 0.0141404 40.0171 -0.050872 39.9983 0.0920746L39.9979 0.0924784Z" fill="#EA580C"/>
<path d="M20.6789 0.0117188C20.2745 0.0912681 19.8625 0.12115 19.4593 0.211602C18.7906 0.361413 18.1474 0.572602 17.5774 0.96833C17.1322 1.27724 16.7803 1.66207 16.6371 2.20518C16.6047 2.32753 16.5287 2.35903 16.4155 2.35782C16.1155 2.35459 15.8155 2.35701 15.5155 2.35701C13.716 2.35701 11.9165 2.36024 10.1166 2.35257C9.91741 2.35176 9.81742 2.41354 9.75222 2.60374C9.62182 2.98493 9.46703 3.35764 9.32504 3.73479C9.24144 3.95648 9.25184 3.9698 9.49263 3.9698C11.9053 3.9698 14.318 3.97263 16.7307 3.96577C16.9887 3.96496 17.2198 3.98757 17.3962 4.19836C17.4326 4.24197 17.5178 4.25731 17.5006 4.32919C17.487 4.38572 17.4146 4.38411 17.3654 4.39986C16.6447 4.63002 15.9515 4.92399 15.3099 5.32982C14.7348 5.69324 14.2132 6.12006 13.8576 6.71769C13.3016 7.65209 13.4892 8.62364 14.35 9.29194C14.4292 9.35332 14.51 9.41348 14.594 9.468C14.7004 9.53664 14.6848 9.57662 14.5764 9.62548C13.8708 9.94408 13.1316 10.1351 12.3657 10.2288C11.7761 10.301 11.1841 10.3136 10.5906 10.3132C7.59793 10.3107 4.60527 10.3119 1.61262 10.3119C1.31864 10.3119 1.31384 10.3047 1.42463 10.022C1.65982 9.42156 1.90421 8.82433 2.1254 8.21863C2.199 8.01673 2.30819 7.96262 2.51018 7.96302C5.16965 7.96908 7.82871 7.96706 10.4882 7.96706C10.5414 7.96706 10.5958 7.9606 10.6478 7.96827C10.8306 7.99573 10.9258 7.91537 10.9874 7.74093C11.1257 7.34803 11.2817 6.96159 11.4305 6.57272C11.5113 6.36113 11.5053 6.35023 11.2737 6.35023C9.12745 6.34982 6.98156 6.35023 4.83526 6.35023C4.26209 6.35023 3.68892 6.35144 3.11575 6.35023C2.87016 6.34982 2.85256 6.32398 2.94056 6.09704C3.39054 4.93853 3.83891 3.77921 4.29289 2.62231C4.69127 1.60674 5.44563 0.965503 6.43238 0.573814C7.20795 0.265711 8.0135 0.0993442 8.84426 0.0476573C8.89626 0.0444269 8.94706 0.0246405 8.99826 0.0121226C12.8913 0.0121226 16.7847 0.0121226 20.6777 0.0121226L20.6789 0.0117188Z" fill="#EA580C"/>
<path d="M32.1186 20C31.6186 19.8845 31.1082 19.8353 30.6014 19.761C28.7827 19.494 26.9636 19.2304 25.1441 18.9675C23.3246 18.7046 21.5051 18.4446 19.6856 18.1817C18.5389 18.0161 17.3921 17.8469 16.2454 17.681C14.5187 17.431 12.7915 17.1823 11.0648 16.9331C9.34451 16.6848 7.6238 16.4373 5.90348 16.1889C4.26196 15.9523 2.62085 15.7153 0.979328 15.4782C0.776138 15.4487 0.572949 15.4168 0.372559 15.3575C0.698942 15.3878 1.02533 15.4164 1.35131 15.4487C2.24527 15.538 3.13922 15.6284 4.03318 15.7197C4.90033 15.8081 5.76709 15.9006 6.63465 15.9878C7.509 16.0758 8.38376 16.1574 9.25772 16.245C10.1253 16.3319 10.9924 16.4231 11.86 16.5107C12.7207 16.5976 13.5819 16.6816 14.4431 16.7684C15.317 16.8568 16.1906 16.9485 17.0649 17.0361C17.9325 17.1233 18.8004 17.2065 19.668 17.2933C20.5424 17.3809 21.4163 17.471 22.2903 17.559C23.1578 17.6462 24.0258 17.731 24.8929 17.8187C25.7601 17.9063 26.6272 17.9971 27.4948 18.0844C28.23 18.1583 28.9651 18.2289 29.7003 18.3024C30.581 18.3909 31.4618 18.4817 32.3426 18.5706C32.4486 18.5815 32.555 18.5871 32.6609 18.5968C32.8129 18.6109 32.8489 18.6832 32.7925 18.8286C32.6421 19.2166 32.4762 19.599 32.3582 19.9996H32.1182L32.1186 20Z" fill="#EA580C"/>
<path d="M-8.83013e-05 13.741C0.0975068 13.2916 0.399892 13.1947 0.803071 13.2573C0.900667 13.2726 1.00266 13.2585 1.10266 13.2601C1.18905 13.2617 1.27305 13.254 1.30265 13.3756C1.32785 13.4781 1.43464 13.487 1.51744 13.4886C1.93701 13.4951 2.35699 13.4935 2.77697 13.4935C2.80337 13.4935 2.83057 13.4891 2.85537 13.4802C2.91217 13.46 2.98016 13.4382 2.97096 13.3631C2.96256 13.2936 2.89257 13.3021 2.84177 13.2976C2.53698 13.2698 2.2318 13.2439 1.92662 13.2165C1.62783 13.1894 1.32905 13.1616 1.03786 13.0857C0.565083 12.9621 0.453889 12.7105 0.653879 12.2583C0.917066 11.6643 1.35064 11.3053 2.00021 11.2245C2.74417 11.132 3.48774 11.1236 4.2305 11.2342C4.34769 11.2516 4.46529 11.2887 4.57368 11.3376C4.78647 11.4333 4.87087 11.6186 4.82487 11.8512C4.82367 11.8577 4.82167 11.8641 4.82007 11.871C4.71608 12.3374 4.68208 12.3649 4.2125 12.3649C4.07251 12.3649 3.93251 12.3657 3.79252 12.3649C3.66813 12.3637 3.53373 12.3899 3.49334 12.209C3.47974 12.1476 3.40294 12.1351 3.34254 12.1266C2.89137 12.0648 2.43979 12.066 1.98861 12.1254C1.92222 12.1343 1.83662 12.148 1.83582 12.2276C1.83462 12.3305 1.93461 12.3172 2.00301 12.3257C2.61738 12.4016 3.23895 12.4109 3.84892 12.5272C4.41609 12.635 4.50129 12.8204 4.2733 13.3526C4.01091 13.9639 3.55333 14.285 2.90617 14.3431C2.12821 14.4126 1.34984 14.4239 0.571883 14.3479C0.349494 14.3261 0.136305 14.2704 -0.000488281 14.0649V13.7418L-8.83013e-05 13.741Z" fill="#EA580C"/>
<path d="M0.163574 15.1172H0.427161C11.5702 15.1172 22.7132 15.1172 33.8563 15.1172C34.2051 15.1172 34.2079 15.1184 34.0823 15.4495C33.8059 16.178 33.5223 16.904 33.2511 17.6345C33.1919 17.7936 33.1159 17.8437 32.9435 17.8279C31.8236 17.727 30.7028 17.6381 29.5817 17.5477C28.8389 17.4879 28.0954 17.435 27.3526 17.3745C26.4443 17.3002 25.5363 17.219 24.6275 17.1451C23.878 17.0841 23.128 17.0312 22.3785 16.9706C21.6421 16.9113 20.9065 16.8451 20.1706 16.7845C19.4478 16.7247 18.7246 16.669 18.0015 16.6101C17.2255 16.5471 16.45 16.4808 15.674 16.4186C14.9376 16.3593 14.2009 16.3052 13.4649 16.245C12.5498 16.1703 11.635 16.0908 10.7198 16.0157C9.99028 15.9559 9.26032 15.9014 8.53076 15.842C7.76799 15.7802 7.00563 15.7144 6.24327 15.6526C5.51371 15.5933 4.78374 15.538 4.05418 15.4786C3.29142 15.4168 2.52906 15.3518 1.76629 15.2896C1.36151 15.2565 0.957135 15.2254 0.551955 15.1967C0.434361 15.1887 0.317567 15.185 0.163574 15.1172Z" fill="#EA580C"/>
<path d="M21.6853 12.8866C22.0589 12.4682 22.4313 12.0507 22.804 11.6336C22.9244 11.4987 23.0468 11.3659 23.1664 11.2302C23.2152 11.1749 23.2752 11.1563 23.3448 11.1563C23.6248 11.1563 23.9044 11.1547 24.1844 11.1563C24.2224 11.1563 24.278 11.1591 24.294 11.1825C24.3296 11.2342 24.2692 11.2645 24.2404 11.2964C23.8616 11.7204 23.4812 12.1436 23.1012 12.5664C22.6004 13.1236 22.0973 13.6793 21.5997 14.2393C21.5081 14.3423 21.4113 14.398 21.2713 14.3928C21.0717 14.3851 20.8709 14.3811 20.6721 14.3936C20.4818 14.4057 20.4286 14.3217 20.4374 14.1436C20.459 13.7208 20.4694 13.2973 20.4838 12.8745C20.485 12.8418 20.4838 12.8091 20.4838 12.7194C20.247 12.9766 20.0418 13.1987 19.8374 13.4212C19.5702 13.7116 19.303 14.0023 19.0354 14.2926C18.9842 14.3484 18.925 14.3891 18.845 14.3891C18.5918 14.3891 18.3387 14.3875 18.0855 14.3912C17.9511 14.3932 17.9111 14.3217 17.9183 14.2006C17.9355 13.8989 17.9491 13.5969 17.9683 13.2952C18.0039 12.7323 18.0507 12.1702 18.0779 11.6069C18.0999 11.1559 18.0899 11.1555 18.5415 11.1555C18.7014 11.1555 18.8614 11.1623 19.021 11.1539C19.183 11.1454 19.2554 11.2047 19.2406 11.3751C19.2038 11.7967 19.1746 12.2187 19.1398 12.6407C19.1334 12.7194 19.1118 12.7977 19.1506 12.9181C19.3498 12.698 19.5318 12.4989 19.7114 12.2982C20.0146 11.959 20.3174 11.6194 20.6177 11.2778C20.6945 11.1906 20.7833 11.1526 20.8989 11.1551C21.1121 11.1595 21.3253 11.1615 21.5385 11.1547C21.7001 11.1494 21.7597 11.1955 21.7409 11.3772C21.6949 11.8246 21.6737 12.2744 21.6453 12.7239C21.6421 12.7735 21.6225 12.8309 21.6861 12.8878L21.6853 12.8866Z" fill="#EA580C"/>
<path d="M32.565 14.3912C31.9918 14.3912 31.4186 14.3924 30.8459 14.3904C30.6427 14.3895 30.6303 14.3677 30.7187 14.1836C31.1699 13.246 31.6242 12.31 32.071 11.3703C32.143 11.2185 32.2306 11.1502 32.405 11.1514C33.4309 11.1591 34.4573 11.1547 35.4836 11.1555C35.7168 11.1555 35.726 11.1737 35.6384 11.3994C35.5752 11.5621 35.508 11.7236 35.4536 11.8896C35.4024 12.0451 35.2985 12.0846 35.1473 12.0838C34.4677 12.079 33.7877 12.0818 33.1082 12.0818C33.0482 12.0818 32.9882 12.083 32.9282 12.0842C32.829 12.0863 32.749 12.1327 32.7458 12.2328C32.7418 12.3608 32.8562 12.3253 32.9262 12.3257C33.6193 12.3293 34.3121 12.3273 35.0053 12.3293C35.2493 12.3301 35.2621 12.3511 35.1761 12.5841C35.1201 12.7356 35.0577 12.8842 35.0081 13.0376C34.9637 13.1749 34.8793 13.2193 34.7389 13.2185C33.9793 13.2137 33.2198 13.2165 32.4598 13.2165C32.3586 13.2165 32.2626 13.2141 32.2038 13.3275C32.141 13.4483 32.1602 13.4967 32.3018 13.4951C32.6418 13.4911 32.9814 13.4939 33.3214 13.4943C33.7613 13.4943 34.2009 13.4971 34.6409 13.4927C34.7785 13.4915 34.8305 13.5307 34.7645 13.6679C34.7413 13.716 34.7241 13.7677 34.7045 13.8174C34.4305 14.518 34.6145 14.3758 33.8649 14.3891C33.4317 14.3968 32.9986 14.3904 32.5654 14.3904L32.565 14.3912Z" fill="#EA580C"/>
<path d="M29.5531 11.1555C29.9195 11.1555 30.2863 11.1515 30.6527 11.1567C31.4402 11.168 31.7154 11.6138 31.3802 12.3269C31.171 12.7723 30.8611 13.1236 30.4303 13.3574C30.2999 13.4281 30.2679 13.5117 30.3031 13.6514C30.3503 13.8404 30.3775 14.0342 30.4183 14.2248C30.4427 14.3399 30.3991 14.3904 30.2863 14.39C29.9731 14.3892 29.6599 14.3879 29.3467 14.3888C29.2491 14.3888 29.2035 14.3367 29.1835 14.2462C29.1499 14.0952 29.1067 13.9462 29.0779 13.7948C29.0551 13.6736 28.9923 13.6227 28.8724 13.6248C28.666 13.628 28.4592 13.6296 28.2528 13.624C28.1352 13.6207 28.0684 13.674 28.0212 13.7766C27.948 13.9353 27.866 14.0891 27.7912 14.247C27.7468 14.3411 27.6836 14.3936 27.5748 14.392C27.3284 14.3884 27.0816 14.39 26.8353 14.3912C26.7113 14.392 26.6801 14.3399 26.7337 14.2284C26.8321 14.0225 26.9268 13.8149 27.0264 13.6094C27.3864 12.866 27.7528 12.1258 28.104 11.3784C28.1856 11.2048 28.2904 11.1458 28.4744 11.1523C28.834 11.1648 29.1939 11.1559 29.5539 11.1559L29.5531 11.1555ZM29.5303 12.1287C29.5303 12.1287 29.5303 12.1262 29.5303 12.1246C29.4107 12.1246 29.2911 12.1246 29.1711 12.1246C28.8128 12.1242 28.7136 12.2018 28.6104 12.551C28.5844 12.6391 28.608 12.6871 28.6964 12.6827C29.0939 12.6617 29.4935 12.7271 29.8903 12.6544C30.0459 12.6257 30.1603 12.543 30.2355 12.4073C30.3219 12.251 30.2667 12.1416 30.0887 12.1315C29.9031 12.121 29.7167 12.1291 29.5303 12.1291V12.1287Z" fill="#EA580C"/>
<path d="M5.98772 14.4291C5.69853 14.3948 5.39775 14.392 5.10576 14.3136C4.55939 14.167 4.3414 13.8048 4.47179 13.2512C4.73658 12.1278 5.64973 11.3158 6.82568 11.1587C7.32365 11.0921 7.82123 11.0905 8.3192 11.1571C8.352 11.1615 8.3852 11.1664 8.4176 11.1732C9.15836 11.3243 9.37515 11.7022 9.13556 12.4254C8.73398 13.6381 7.79843 14.3439 6.53369 14.3911C6.3541 14.398 6.17491 14.4158 5.98732 14.4295L5.98772 14.4291ZM6.4165 13.5399C7.17086 13.5391 7.69963 13.1878 7.87922 12.5942C7.96122 12.3229 7.87082 12.1351 7.60884 12.0333C7.43085 11.9643 7.24486 11.9598 7.05806 11.9695C6.4129 12.0035 5.88092 12.4234 5.75493 12.9972C5.70333 13.2322 5.78373 13.3857 6.00372 13.4794C6.14931 13.5415 6.3017 13.5419 6.4165 13.5399Z" fill="#EA580C"/>
<path d="M25.8945 14.3908C25.7545 14.3908 25.6145 14.3855 25.4749 14.392C25.3293 14.3988 25.2685 14.3387 25.2761 14.1905C25.2941 13.8448 25.2665 13.8626 24.9454 13.8626C24.6126 13.8626 24.2794 13.8686 23.9466 13.8602C23.7942 13.8565 23.669 13.8945 23.5814 14.0209C23.3654 14.3318 23.0755 14.4461 22.7035 14.3952C22.5271 14.371 22.3443 14.3916 22.1647 14.3899C22.1267 14.3899 22.0775 14.4017 22.0579 14.358C22.0375 14.3128 22.0823 14.2866 22.1079 14.2583C22.2747 14.0754 22.4415 13.8925 22.6099 13.7116C23.3706 12.8939 24.1326 12.0774 24.8918 11.258C24.957 11.1878 25.0282 11.1571 25.1198 11.1575C25.5593 11.1587 25.9989 11.1615 26.4381 11.1563C26.5825 11.1547 26.6457 11.2084 26.6393 11.357C26.6057 12.1488 26.5753 12.9407 26.5433 13.733C26.5377 13.8739 26.5181 14.0152 26.5237 14.1553C26.5301 14.3257 26.4729 14.4069 26.2941 14.3928C26.1617 14.3827 26.0277 14.3908 25.8945 14.3908ZM25.3569 12.5207C25.3569 12.4404 25.3589 12.3604 25.3557 12.2805C25.3545 12.249 25.3509 12.2042 25.3313 12.19C25.2889 12.1593 25.2601 12.2066 25.2341 12.2324C25.107 12.3588 24.9786 12.4844 24.8562 12.616C24.7854 12.6924 24.6342 12.7707 24.6678 12.8498C24.7122 12.9544 24.8686 12.8922 24.9754 12.8939C25.3581 12.9003 25.3581 12.8963 25.3569 12.5211V12.5207Z" fill="#EA580C"/>
<path d="M11.6852 11.1543C12.1848 11.1543 12.6844 11.1531 13.1839 11.1551C13.3959 11.1559 13.4071 11.1769 13.3123 11.3732C13.2215 11.5605 13.1179 11.7422 13.0399 11.9344C12.9691 12.1093 12.8623 12.1719 12.674 12.1686C12.0612 12.1577 11.4484 12.1646 10.8353 12.165C10.7753 12.165 10.7149 12.163 10.6557 12.1703C10.5345 12.1844 10.4749 12.2785 10.4801 12.3798C10.4853 12.4856 10.5953 12.4444 10.6597 12.4449C11.126 12.4489 11.5924 12.4461 12.0588 12.4477C12.266 12.4485 12.2716 12.4598 12.1796 12.6512C12.0952 12.8264 11.9944 12.9956 11.926 13.1769C11.8512 13.3744 11.7252 13.4273 11.526 13.4217C11.08 13.4087 10.6333 13.4229 10.1873 13.4148C10.0269 13.412 9.9245 13.46 9.8613 13.6151C9.7829 13.8077 9.68171 13.9906 9.60131 14.1824C9.53972 14.329 9.45412 14.4061 9.28373 14.3944C9.07814 14.3803 8.87095 14.3924 8.66456 14.3908C8.43937 14.3888 8.42817 14.375 8.52937 14.1622C8.75975 13.6773 8.99574 13.1951 9.22893 12.7118C9.44492 12.2643 9.66691 11.8202 9.8721 11.3679C9.9477 11.2007 10.0501 11.1466 10.2273 11.1507C10.7133 11.1616 11.1996 11.1543 11.686 11.1543H11.6852Z" fill="#EA580C"/>
<path d="M15.7575 11.1555C16.3903 11.1555 17.0226 11.1591 17.6554 11.1531C17.827 11.1515 17.8738 11.1914 17.7874 11.3578C17.6634 11.5956 17.5514 11.8399 17.4418 12.0846C17.3874 12.2066 17.3026 12.2498 17.1746 12.2482C16.8018 12.2437 16.4283 12.2575 16.0559 12.2425C15.8551 12.2345 15.7427 12.2979 15.6559 12.4872C15.3935 13.0606 15.1071 13.6227 14.8395 14.1941C14.7695 14.3439 14.6771 14.4033 14.5152 14.3944C14.3028 14.3831 14.0888 14.3863 13.876 14.3928C13.7028 14.398 13.684 14.3363 13.756 14.1897C14.038 13.6183 14.3156 13.0445 14.5899 12.4691C14.6887 12.2615 14.6767 12.2478 14.446 12.247C14.0796 12.2454 13.7136 12.2433 13.3472 12.247C13.1836 12.2486 13.1424 12.1929 13.22 12.0418C13.34 11.8092 13.4576 11.5754 13.5648 11.3364C13.6256 11.2007 13.712 11.1506 13.8588 11.1523C14.4916 11.1583 15.1239 11.1551 15.7567 11.1547L15.7575 11.1555Z" fill="#EA580C"/>
<path d="M19.4493 8.00904C18.9425 8.01752 18.4665 7.97593 18.0082 7.81522C17.3126 7.57172 17.197 7.10654 17.7098 6.57392C18.0546 6.21575 18.4945 6.00294 18.9453 5.81356C19.0389 5.77439 19.0961 5.82487 19.1537 5.88544C19.7301 6.49034 20.3048 7.09644 20.884 7.69852C21.0088 7.82854 20.9352 7.86085 20.8128 7.87982C20.3524 7.94968 19.8925 8.02439 19.4493 8.00945V8.00904Z" fill="#EA580C"/>
<path d="M21.0716 1.74485C21.2824 1.73516 21.484 1.77473 21.68 1.84823C21.9584 1.95281 22.0083 2.11433 21.8332 2.35944C21.6852 2.56619 21.4756 2.69985 21.2624 2.82543C21.1476 2.89327 21.0164 2.93527 20.908 3.01118C20.692 3.16301 20.5076 3.13071 20.3188 2.96111C20.1888 2.84441 20.058 2.73094 19.9641 2.58113C19.8317 2.36994 19.8561 2.18904 20.0528 2.03075C20.3512 1.79129 20.7092 1.75495 21.072 1.74405L21.0716 1.74485Z" fill="#EA580C"/>
<path d="M23.3953 10.2994H19.4907C20.5407 10.1948 21.5694 9.99375 22.5734 9.66788C22.6878 9.63073 22.7742 9.64769 22.8582 9.74016C23.0185 9.91702 23.1885 10.0854 23.3957 10.2994H23.3953Z" fill="#EA580C"/>
</g>
<defs>
<clipPath id="clip0_79_624">
<rect width="40" height="20" fill="white"/>
</clipPath>
</defs>
</svg>
